inDegrees=yes
name=ik_lifting_orientations
DataType=double
version=3
OpenSimVersion=4.5-2024-01-10-34fd6af
endheader
time	pelvis_tilt	pelvis_list	pelvis_rotation	pelvis_tx	pelvis_ty	pelvis_tz	hip_flexion_r	hip_adduction_r	hip_rotation_r	knee_angle_r	knee_angle_r_beta	ankle_angle_r	subtalar_angle_r	mtp_angle_r	hip_flexion_l	hip_adduction_l	hip_rotation_l	knee_angle_l	knee_angle_l_beta	ankle_angle_l	subtalar_angle_l	mtp_angle_l	lumbar_extension	lumbar_bending	lumbar_rotation	arm_flex_r	arm_add_r	arm_rot_r	elbow_flex_r	pro_sup_r	wrist_flex_r	wrist_dev_r	arm_flex_l	arm_add_l	arm_rot_l	elbow_flex_l	pro_sup_l	wrist_flex_l	wrist_dev_l
0.02	-0.008922953506543499	-0.02153415425272963	-90.00368116469332	0	0.9399999998679526	0	44.99032510665931	-11.65891933685869	0	59.99596541555599	1.0471271344141	-5.804286474453232	0	0	44.99032510665931	-11.65891933685869	0	59.99596541555599	1.0471271344141	-5.804286474453232	0	0	-0.03898173076785819	0.0122167207011651	0.02677330320459664	-0.4653440096440456	-0.1240487426721125	-0.04095811611775903	1.006711235873013	2.549690782558938	0	0	0	-10.29457151148544	0	87.50082066395329	2.549690782558938	0	0
0.03	-0.0009080343967966154	0.004043470449386913	-89.99701913040724	0	0.9399999998679526	0	44.99055980214444	-11.53587106517324	0	59.99604561563939	1.047128534169616	-5.73051318213219	0	0	44.99055980214444	-11.53587106517324	0	59.99604561563939	1.047128534169616	-5.73051318213219	0	0	0.009558696914561536	-0.0009071542219829282	-0.06138658122057752	-0.2293428659579859	-0.06213036896487906	0.05147179358332886	0.5398113881226633	2.505900567176235	0	0	0	-10.35469149764124	0	87.5437392764962	2.505900567176235	0	0
0.04	-0.00195469909865125	-0.00181886256975276	-90.00799298884235	0	0.9399999998679526	0	44.99076209722907	-11.43321350743075	0	59.99611495338235	1.047129744341526	-5.669691172647259	0	0	44.99076209722907	-11.43321350743075	0	59.99611495338235	1.047129744341526	-5.669691172647259	0	0	-0.00160000949203602	-0.002348613080706378	0.06288301875631568	-0.2218052944157292	-0.08825689155743011	-0.07582503213099588	0.5357949473934307	2.467986595903934	0	0	0	-10.40688725162464	0	87.58089863520854	2.467986595903934	0	0
0.05	0.001336316811123915	-0.0005304801088455373	-90.00379112163607	0	0.9399999998679526	0	44.99114999923167	-11.24886074258191	0	59.99624873556382	1.047132079281073	-5.563156638583882	0	0	44.99114999923167	-11.24886074258191	0	59.99624873556382	1.047132079281073	-5.563156638583882	0	0	-0.009229421100332372	0.0003402382326635836	0.2941476725913792	-0.1857385219524363	-0.1045073631205766	-0.3475657028362336	0.492933158338496	2.394655958785928	0	0	0	-10.50837479890407	0	87.65276986440331	2.394655958785928	0	0
0.06	-0.003132931062679613	-0.005911436263731661	-90.00943533685502	0	0.9399999998679526	0	44.99134127005549	-11.16480958795666	0	59.99631520208614	1.04713323934073	-5.515960234605929	0	0	44.99134127005549	-11.16480958795666	0	59.99631520208614	1.04713323934073	-5.515960234605929	0	0	-0.02031260925261693	0.0154731167874542	0.2511208626752472	-0.1592407896270284	-0.1089253830092996	-0.3102203576938369	0.4881658318679638	2.358111116650196	0	0	0	-10.55928295021457	0	87.6885874671769	2.358111116650196	0	0
0.07000000000000001	-0.01147695715071683	-0.007666272124568982	-90.05918462124419	0	0.9399999998679526	0	44.99134336039604	-11.16383088912525	0	59.99631592950159	1.047133252036525	-5.515395637143727	0	0	44.99134336039604	-11.16383088912525	0	59.99631592950159	1.047133252036525	-5.515395637143727	0	0	-0.01008994805783789	0.01674775494099688	-0.06281123342071311	-0.1588794861240144	-0.07165883654455615	0.05900390454858197	0.4690437542150119	2.357714230764176	0	0	0	-10.55983412540218	0	87.68897645456263	2.357714230764176	0	0
0.08	-0.02206256087672468	0.005778314552187044	-90.07545102356575	0	0.9399999998679526	0	44.99153441562164	-11.08404682201035	0	59.99638265540135	1.047134416623172	-5.471435451121285	0	0	44.99153441562164	-11.08404682201035	0	59.99638265540135	1.047134416623172	-5.471435451121285	0	0	0.02466704197789684	0.021154042493189	0.1223993587854198	-0.4393424625723538	-0.1232506633703597	-0.1043144784559784	0.9868557272511753	2.320958416970904	0	0	0	-10.61125335383704	0	87.72500087220499	2.320958416970904	0	0
0.09	-0.01264495764462752	0.00965676911388795	-90.04710755951027	0	0.9399999998679526	0	44.99153637717245	-11.08317365134637	0	59.9963833417645	1.047134428602469	-5.470940997022457	0	0	44.99153637717245	-11.08317365134637	0	59.9963833417645	1.047134428602469	-5.470940997022457	0	0	0.01969826357020262	0.02183524158455815	0.520910536695027	-0.16870069834599	-0.1086300399180933	-0.5152229605400774	0.461998576974566	2.32058338716051	0	0	0	-10.61177643352105	0	87.72536843891501	2.32058338716051	0	0
0.1	-0.009721029398074992	0.02275300463225466	-90.03912148115386	0	0.9399999998679526	0	44.99171877952152	-11.01029216589257	0	59.99644731588687	1.04713554516154	-5.431440043532732	0	0	44.99171877952152	-11.01029216589257	0	59.99644731588687	1.04713554516154	-5.431440043532732	0	0	0.043302166713835	0.03530412545786006	0.4128791199863592	-0.394078052250168	-0.1790924271159628	-0.4422139961728407	0.9484284422905831	2.285283328275928	0	0	0	-10.6613392336545	0	87.75996610222055	2.285283328275928	0	0
0.11	-0.01205983728706927	0.005877094734640617	-90.05643071337539	0	0.9399999998679526	0	44.99172095693273	-11.00937099885747	0	59.99644808266645	1.047135558544369	-5.430928035082108	0	0	44.99172095693273	-11.00937099885747	0	59.99644808266645	1.047135558544369	-5.430928035082108	0	0	0.01175216367152527	0.02173952951585423	0.1892498012782619	-0.122432206213167	-0.1047145061928788	-0.1865766519579338	0.4364673748190084	2.284864025267578	0	0	0	-10.66192673581209	0	87.76037706157446	2.284864025267578	0	0
0.12	-0.02600456459713341	-0.008916978587284113	-90.16968004509629	0	0.9399999998679526	0	44.99187009398876	-10.95425942059128	0	59.99650080381811	1.047136478702051	-5.401879850184885	0	0	44.99187009398876	-10.95425942059128	0	59.99650080381811	1.047136478702051	-5.401879850184885	0	0	-0.001648755084806088	0.03636356913991034	0.4479904334800641	-0.3823458061791241	-0.1627952913018371	-0.328413600283109	0.9536675232020475	2.255685886076661	0	0	0	-10.70317074550853	0	87.7889746681446	2.255685886076661	0	0
0.13	-0.02451462375136297	-0.007917505263277516	-90.15297660199801	0	0.9399999998679526	0	44.99204843283512	-10.88957677279364	0	59.99656395259937	1.047137580856202	-5.368048953330459	0	0	44.99204843283512	-10.88957677279364	0	59.99656395259937	1.047137580856202	-5.368048953330459	0	0	0.003013918348301798	0.02776109828276168	0.2907669699609365	-0.1111240378333363	-0.06486933412757469	-0.1695284081306834	0.4609312194859323	2.220713154866305	0	0	0	-10.75267503585906	0	87.82325158735179	2.220713154866305	0	0
0.14	-0.01724870997908538	-0.01770515413081889	-90.18204485114413	0	0.9399999998679526	0	44.99205007715672	-10.88893649894893	0	59.99656453501932	1.047137591021348	-5.36770384166606	0	0	44.99205007715672	-10.88893649894893	0	59.99656453501932	1.047137591021348	-5.36770384166606	0	0	-0.01685138971460428	0.02587830473224792	0.1261938590458097	-0.09054522539998811	-0.1089465238394161	0.03501584808081306	0.4510742386958194	2.220393054682155	0	0	0	-10.75312644718706	0	87.82356531846207	2.220393054682155	0	0
0.15	-0.01626626676067496	-0.008383794146815605	-90.15591330890237	0	0.9399999998679526	0	44.99219071369853	-10.84132753338365	0	59.9966146831344	1.04713846627107	-5.343392924370851	0	0	44.99219071369853	-10.84132753338365	0	59.9966146831344	1.04713846627107	-5.343392924370851	0	0	-0.01345887370946703	0.02575908545597818	0.003906678274553028	-0.04631476066168128	-0.08867763017168902	0.1609528697020147	0.4429614278073242	2.192542311486561	0	0	0	-10.79278964315855	0	87.85086198736472	2.192542311486561	0	0
0.16	-0.01461240659700671	-0.02133680959218052	-90.16409296567477	0	0.9399999998679526	0	44.99238259374576	-10.77766510586473	0	59.99668321786295	1.047139662427735	-5.311151988637851	0	0	44.99238259374576	-10.77766510586473	0	59.99668321786295	1.047139662427735	-5.311151988637851	0	0	-0.04252553413177702	0.03286607745997547	0.1630246457747185	-0.02603146957819565	-0.09858258747713035	0.01724508494477602	0.4332037144529206	2.154447550646332	0	0	0	-10.84712425882791	0	87.88819888766123	2.154447550646332	0	0
